<mxfile host="65bd71144e">
    <diagram name="ページ2" id="L2aK83h6PmSw99CUh6n0">
        <mxGraphModel dx="888" dy="768" grid="1" gridSize="10" guides="1" tooltips="1" connect="1" arrows="1" fold="1" page="1" pageScale="1" pageWidth="827" pageHeight="1169" background="#FFFFFF" math="0" shadow="0">
            <root>
                <mxCell id="bX9UhIDXVJmMIsfEnbul-0"/>
                <mxCell id="bX9UhIDXVJmMIsfEnbul-1" parent="bX9UhIDXVJmMIsfEnbul-0"/>
                <mxCell id="bX9UhIDXVJmMIsfEnbul-2" value="" style="rounded=0;whiteSpace=wrap;html=1;fillColor=#333333;fontColor=#ffffff;strokeColor=#314354;" parent="bX9UhIDXVJmMIsfEnbul-1" vertex="1">
                    <mxGeometry x="160" y="160" width="120" height="40" as="geometry"/>
                </mxCell>
                <mxCell id="bX9UhIDXVJmMIsfEnbul-3" value="" style="rounded=0;whiteSpace=wrap;html=1;" parent="bX9UhIDXVJmMIsfEnbul-1" vertex="1">
                    <mxGeometry x="160" y="200" width="120" height="40" as="geometry"/>
                </mxCell>
                <mxCell id="bX9UhIDXVJmMIsfEnbul-4" value="" style="rounded=0;whiteSpace=wrap;html=1;" parent="bX9UhIDXVJmMIsfEnbul-1" vertex="1">
                    <mxGeometry x="160" y="240" width="120" height="40" as="geometry"/>
                </mxCell>
                <mxCell id="bX9UhIDXVJmMIsfEnbul-5" value="" style="rounded=0;whiteSpace=wrap;html=1;" parent="bX9UhIDXVJmMIsfEnbul-1" vertex="1">
                    <mxGeometry x="160" y="280" width="120" height="40" as="geometry"/>
                </mxCell>
                <mxCell id="bX9UhIDXVJmMIsfEnbul-6" value="" style="rounded=0;whiteSpace=wrap;html=1;" parent="bX9UhIDXVJmMIsfEnbul-1" vertex="1">
                    <mxGeometry x="160" y="120" width="120" height="40" as="geometry"/>
                </mxCell>
                <mxCell id="bX9UhIDXVJmMIsfEnbul-7" value="" style="rounded=0;whiteSpace=wrap;html=1;" parent="bX9UhIDXVJmMIsfEnbul-1" vertex="1">
                    <mxGeometry x="160" y="320" width="120" height="40" as="geometry"/>
                </mxCell>
                <mxCell id="bX9UhIDXVJmMIsfEnbul-8" value="" style="rounded=0;whiteSpace=wrap;html=1;" parent="bX9UhIDXVJmMIsfEnbul-1" vertex="1">
                    <mxGeometry x="640" y="120" width="120" height="40" as="geometry"/>
                </mxCell>
                <mxCell id="bX9UhIDXVJmMIsfEnbul-9" value="" style="rounded=0;whiteSpace=wrap;html=1;" parent="bX9UhIDXVJmMIsfEnbul-1" vertex="1">
                    <mxGeometry x="640" y="200" width="120" height="40" as="geometry"/>
                </mxCell>
                <mxCell id="bX9UhIDXVJmMIsfEnbul-10" value="" style="rounded=0;whiteSpace=wrap;html=1;" parent="bX9UhIDXVJmMIsfEnbul-1" vertex="1">
                    <mxGeometry x="640" y="240" width="120" height="40" as="geometry"/>
                </mxCell>
                <mxCell id="bX9UhIDXVJmMIsfEnbul-11" value="" style="rounded=0;whiteSpace=wrap;html=1;fillColor=#808080;fontColor=#ffffff;strokeColor=#314354;" parent="bX9UhIDXVJmMIsfEnbul-1" vertex="1">
                    <mxGeometry x="640" y="280" width="120" height="40" as="geometry"/>
                </mxCell>
                <mxCell id="bX9UhIDXVJmMIsfEnbul-12" value="" style="rounded=0;whiteSpace=wrap;html=1;" parent="bX9UhIDXVJmMIsfEnbul-1" vertex="1">
                    <mxGeometry x="640" y="320" width="120" height="40" as="geometry"/>
                </mxCell>
                <mxCell id="bX9UhIDXVJmMIsfEnbul-13" value="" style="rounded=0;whiteSpace=wrap;html=1;" parent="bX9UhIDXVJmMIsfEnbul-1" vertex="1">
                    <mxGeometry x="640" y="160" width="120" height="40" as="geometry"/>
                </mxCell>
                <mxCell id="bX9UhIDXVJmMIsfEnbul-14" value="TableA" style="text;html=1;strokeColor=none;fillColor=none;align=center;verticalAlign=middle;whiteSpace=wrap;rounded=0;" parent="bX9UhIDXVJmMIsfEnbul-1" vertex="1">
                    <mxGeometry x="160" y="80" width="120" height="30" as="geometry"/>
                </mxCell>
                <mxCell id="bX9UhIDXVJmMIsfEnbul-15" value="TableB" style="text;html=1;strokeColor=none;fillColor=none;align=center;verticalAlign=middle;whiteSpace=wrap;rounded=0;" parent="bX9UhIDXVJmMIsfEnbul-1" vertex="1">
                    <mxGeometry x="640" y="80" width="120" height="30" as="geometry"/>
                </mxCell>
                <mxCell id="LzzGlI5VplWi52My5vfw-0" value="" style="ellipse;whiteSpace=wrap;html=1;aspect=fixed;strokeColor=#314354;fillColor=#333333;fontColor=#ffffff;" parent="bX9UhIDXVJmMIsfEnbul-1" vertex="1">
                    <mxGeometry x="420" y="120" width="40" height="40" as="geometry"/>
                </mxCell>
                <mxCell id="LzzGlI5VplWi52My5vfw-1" value="" style="endArrow=none;html=1;entryX=0;entryY=1;entryDx=0;entryDy=0;exitX=0.5;exitY=0;exitDx=0;exitDy=0;" parent="bX9UhIDXVJmMIsfEnbul-1" source="LzzGlI5VplWi52My5vfw-3" target="LzzGlI5VplWi52My5vfw-0" edge="1">
                    <mxGeometry width="50" height="50" relative="1" as="geometry">
                        <mxPoint x="410" y="170" as="sourcePoint"/>
                        <mxPoint x="420" y="160" as="targetPoint"/>
                    </mxGeometry>
                </mxCell>
                <mxCell id="LzzGlI5VplWi52My5vfw-3" value="" style="ellipse;whiteSpace=wrap;html=1;aspect=fixed;" parent="bX9UhIDXVJmMIsfEnbul-1" vertex="1">
                    <mxGeometry x="394" y="160" width="40" height="40" as="geometry"/>
                </mxCell>
                <mxCell id="LzzGlI5VplWi52My5vfw-4" value="" style="ellipse;whiteSpace=wrap;html=1;aspect=fixed;" parent="bX9UhIDXVJmMIsfEnbul-1" vertex="1">
                    <mxGeometry x="450" y="160" width="40" height="40" as="geometry"/>
                </mxCell>
                <mxCell id="LzzGlI5VplWi52My5vfw-5" value="" style="endArrow=none;html=1;exitX=1;exitY=1;exitDx=0;exitDy=0;entryX=0.5;entryY=0;entryDx=0;entryDy=0;" parent="bX9UhIDXVJmMIsfEnbul-1" source="LzzGlI5VplWi52My5vfw-0" target="LzzGlI5VplWi52My5vfw-4" edge="1">
                    <mxGeometry width="50" height="50" relative="1" as="geometry">
                        <mxPoint x="454.14" y="175.86" as="sourcePoint"/>
                        <mxPoint x="460" y="160" as="targetPoint"/>
                        <Array as="points"/>
                    </mxGeometry>
                </mxCell>
                <mxCell id="LzzGlI5VplWi52My5vfw-6" value="" style="ellipse;whiteSpace=wrap;html=1;aspect=fixed;" parent="bX9UhIDXVJmMIsfEnbul-1" vertex="1">
                    <mxGeometry x="360" y="200" width="40" height="40" as="geometry"/>
                </mxCell>
                <mxCell id="LzzGlI5VplWi52My5vfw-7" value="" style="endArrow=none;html=1;entryX=0;entryY=1;entryDx=0;entryDy=0;exitX=1;exitY=0;exitDx=0;exitDy=0;" parent="bX9UhIDXVJmMIsfEnbul-1" source="LzzGlI5VplWi52My5vfw-6" target="LzzGlI5VplWi52My5vfw-3" edge="1">
                    <mxGeometry width="50" height="50" relative="1" as="geometry">
                        <mxPoint x="358.14" y="215.86" as="sourcePoint"/>
                        <mxPoint x="373.99786437626904" y="200.00213562373108" as="targetPoint"/>
                    </mxGeometry>
                </mxCell>
                <mxCell id="LzzGlI5VplWi52My5vfw-8" value="" style="ellipse;whiteSpace=wrap;html=1;aspect=fixed;fillColor=#808080;" parent="bX9UhIDXVJmMIsfEnbul-1" vertex="1">
                    <mxGeometry x="490" y="200" width="40" height="40" as="geometry"/>
                </mxCell>
                <mxCell id="LzzGlI5VplWi52My5vfw-9" value="" style="ellipse;whiteSpace=wrap;html=1;aspect=fixed;" parent="bX9UhIDXVJmMIsfEnbul-1" vertex="1">
                    <mxGeometry x="430" y="200" width="40" height="40" as="geometry"/>
                </mxCell>
                <mxCell id="LzzGlI5VplWi52My5vfw-10" value="" style="endArrow=none;html=1;exitX=0.5;exitY=0;exitDx=0;exitDy=0;entryX=0;entryY=1;entryDx=0;entryDy=0;" parent="bX9UhIDXVJmMIsfEnbul-1" source="LzzGlI5VplWi52My5vfw-9" target="LzzGlI5VplWi52My5vfw-4" edge="1">
                    <mxGeometry width="50" height="50" relative="1" as="geometry">
                        <mxPoint x="464.1421356237337" y="164.14213562373368" as="sourcePoint"/>
                        <mxPoint x="480" y="170" as="targetPoint"/>
                        <Array as="points"/>
                    </mxGeometry>
                </mxCell>
                <mxCell id="LzzGlI5VplWi52My5vfw-11" value="" style="endArrow=none;html=1;exitX=1;exitY=1;exitDx=0;exitDy=0;entryX=0;entryY=0;entryDx=0;entryDy=0;" parent="bX9UhIDXVJmMIsfEnbul-1" source="LzzGlI5VplWi52My5vfw-4" target="LzzGlI5VplWi52My5vfw-8" edge="1">
                    <mxGeometry width="50" height="50" relative="1" as="geometry">
                        <mxPoint x="474.1421356237337" y="174.14213562373368" as="sourcePoint"/>
                        <mxPoint x="490" y="180" as="targetPoint"/>
                        <Array as="points"/>
                    </mxGeometry>
                </mxCell>
                <mxCell id="LzzGlI5VplWi52My5vfw-18" value="" style="endArrow=classic;html=1;entryX=0;entryY=0.5;entryDx=0;entryDy=0;" parent="bX9UhIDXVJmMIsfEnbul-1" target="LzzGlI5VplWi52My5vfw-0" edge="1">
                    <mxGeometry width="50" height="50" relative="1" as="geometry">
                        <mxPoint x="280" y="180" as="sourcePoint"/>
                        <mxPoint x="330" y="130" as="targetPoint"/>
                        <Array as="points">
                            <mxPoint x="340" y="110"/>
                        </Array>
                    </mxGeometry>
                </mxCell>
                <mxCell id="LzzGlI5VplWi52My5vfw-19" value="" style="endArrow=classic;html=1;entryX=-0.019;entryY=0.596;entryDx=0;entryDy=0;entryPerimeter=0;" parent="bX9UhIDXVJmMIsfEnbul-1" source="LzzGlI5VplWi52My5vfw-8" target="bX9UhIDXVJmMIsfEnbul-11" edge="1">
                    <mxGeometry width="50" height="50" relative="1" as="geometry">
                        <mxPoint x="540" y="240" as="sourcePoint"/>
                        <mxPoint x="430" y="150" as="targetPoint"/>
                        <Array as="points">
                            <mxPoint x="570" y="304"/>
                        </Array>
                    </mxGeometry>
                </mxCell>
                <mxCell id="A_VSzT_pMiTw35RNBEE5-0" value="" style="endArrow=classic;html=1;" parent="bX9UhIDXVJmMIsfEnbul-1" edge="1">
                    <mxGeometry width="50" height="50" relative="1" as="geometry">
                        <mxPoint x="139.71" y="120" as="sourcePoint"/>
                        <mxPoint x="139.71" y="360" as="targetPoint"/>
                    </mxGeometry>
                </mxCell>
                <mxCell id="A_VSzT_pMiTw35RNBEE5-1" value="outer loop" style="text;html=1;strokeColor=none;fillColor=none;align=center;verticalAlign=middle;whiteSpace=wrap;rounded=0;" parent="bX9UhIDXVJmMIsfEnbul-1" vertex="1">
                    <mxGeometry x="80" y="90" width="120" height="30" as="geometry"/>
                </mxCell>
            </root>
        </mxGraphModel>
    </diagram>
</mxfile>